<svg width="556" height="556" viewBox="0 0 556 556" fill="none" xmlns="http://www.w3.org/2000/svg">
<circle cx="280" cy="278" r="249" fill="url(#paint0_linear_1_89)"/>
<path d="M539 278C539 422.146 422.146 539 278 539C133.854 539 17 422.146 17 278C17 133.854 133.854 17 278 17C422.146 17 539 133.854 539 278Z" stroke="url(#paint1_linear_1_89)" stroke-width="34"/>
<g filter="url(#filter0_d_1_89)">
<path d="M391.933 152L277 271.281L414 422" stroke="#091C30" stroke-opacity="0.13" stroke-width="24" stroke-linecap="round" shape-rendering="crispEdges"/>
</g>
<g filter="url(#filter1_d_1_89)">
<path d="M123 277H172L195 221L227 363L268 143L309 413L352 196L370 277H434" stroke="#102B49" stroke-width="19" stroke-linecap="round"/>
</g>
<defs>
<filter id="filter0_d_1_89" x="258.566" y="138" width="181.434" height="310" filterUnits="userSpaceOnUse" color-interpolation-filters="sRGB">
<feFlood flood-opacity="0" result="BackgroundImageFix"/>
<feColorMatrix in="SourceAlpha" type="matrix" values="0 0 0 0 0 0 0 0 0 0 0 0 0 0 0 0 0 0 127 0" result="hardAlpha"/>
<feOffset dx="6" dy="6"/>
<feGaussianBlur stdDeviation="4"/>
<feComposite in2="hardAlpha" operator="out"/>
<feColorMatrix type="matrix" values="0 0 0 0 0 0 0 0 0 0 0 0 0 0 0 0 0 0 0.18 0"/>
<feBlend mode="normal" in2="BackgroundImageFix" result="effect1_dropShadow_1_89"/>
<feBlend mode="normal" in="SourceGraphic" in2="effect1_dropShadow_1_89" result="shape"/>
</filter>
<filter id="filter1_d_1_89" x="111.5" y="139.26" width="346" height="289.587" filterUnits="userSpaceOnUse" color-interpolation-filters="sRGB">
<feFlood flood-opacity="0" result="BackgroundImageFix"/>
<feColorMatrix in="SourceAlpha" type="matrix" values="0 0 0 0 0 0 0 0 0 0 0 0 0 0 0 0 0 0 127 0" result="hardAlpha"/>
<feOffset dx="6" dy="6"/>
<feGaussianBlur stdDeviation="4"/>
<feComposite in2="hardAlpha" operator="out"/>
<feColorMatrix type="matrix" values="0 0 0 0 0 0 0 0 0 0 0 0 0 0 0 0 0 0 0.53 0"/>
<feBlend mode="normal" in2="BackgroundImageFix" result="effect1_dropShadow_1_89"/>
<feBlend mode="normal" in="SourceGraphic" in2="effect1_dropShadow_1_89" result="shape"/>
</filter>
<linearGradient id="paint0_linear_1_89" x1="171.414" y1="29" x2="388.586" y2="527" gradientUnits="userSpaceOnUse">
<stop offset="0.326923" stop-color="#D9D9D9"/>
<stop offset="0.933033" stop-color="#464B61" stop-opacity="0.92"/>
</linearGradient>
<linearGradient id="paint1_linear_1_89" x1="426.179" y1="539" x2="129.821" y2="17" gradientUnits="userSpaceOnUse">
<stop stop-color="#245992"/>
<stop offset="1" stop-color="#2D3A48"/>
</linearGradient>
</defs>
</svg>
