<svg width="251" height="75" viewBox="0 0 251 75" fill="none" xmlns="http://www.w3.org/2000/svg">
<path d="M30.5625 2.625C32.75 2.625 34.7188 3 36.4688 3.75C38.2812 4.4375 39.9375 5.21875 41.4375 6.09375C43 6.96875 44.4688 7.78125 45.8438 8.53125C47.2188 9.21875 48.625 9.5625 50.0625 9.5625C51.1875 9.5 52.4688 9.34375 53.9062 9.09375C55.1562 8.84375 56.5938 8.46875 58.2188 7.96875C59.9062 7.40625 61.7812 6.59375 63.8438 5.53125C61.7812 7.53125 60.0938 9.21875 58.7812 10.5938C57.5312 11.9062 56.5625 13 55.875 13.875C55.0625 14.875 54.4688 15.6562 54.0938 16.2188C53.7188 16.9062 53.1562 17.9375 52.4062 19.3125C51.7188 20.5625 50.7812 22.25 49.5938 24.375C48.4062 26.4375 46.9062 29.1562 45.0938 32.5312C45.0938 28.2188 44.6562 24.875 43.7812 22.5C42.9688 20.125 42.0625 18.3125 41.0625 17.0625C39.875 15.625 38.5312 14.7188 37.0312 14.3438C35.6562 14.1562 34.2812 14.4062 32.9062 15.0938C31.5312 15.7188 30.1562 16.6562 28.7812 17.9062C27.4688 19.1562 26.1875 20.6562 24.9375 22.4062C23.75 24.0938 22.6562 25.875 21.6562 27.75C20.7188 29.625 19.9375 31.5312 19.3125 33.4688C18.6875 35.3438 18.2812 37.0938 18.0938 38.7188C17.9062 40.1562 17.875 41.8438 18 43.7812C18.125 45.6562 18.4062 47.5938 18.8438 49.5938C19.2812 51.5312 19.8438 53.4375 20.5312 55.3125C21.2188 57.1875 22.0625 58.875 23.0625 60.375C24.125 61.8125 25.3125 63 26.625 63.9375C27.9375 64.8125 29.4375 65.2188 31.125 65.1562C33 65.0312 34.8438 64.4688 36.6562 63.4688C38.2188 62.6562 39.8125 61.4062 41.4375 59.7188C43.0625 57.9688 44.4688 55.5 45.6562 52.3125L59.5312 54.8438C55.5312 59.7188 51.625 63.375 47.8125 65.8125C44.0625 68.25 40.6875 69.9688 37.6875 70.9688C34.1875 72.0938 30.875 72.625 27.75 72.5625C23.8125 72.125 20.125 70.9375 16.6875 69C13.25 67.0625 10.2812 64.7188 7.78125 61.9688C5.34375 59.1562 3.4375 56.0938 2.0625 52.7812C0.6875 49.4688 0.09375 46.2188 0.28125 43.0312C0.40625 40.9062 0.84375 38.4375 1.59375 35.625C2.34375 32.75 3.34375 29.8125 4.59375 26.8125C5.90625 23.8125 7.46875 20.875 9.28125 18C11.0938 15.125 13.0938 12.5625 15.2812 10.3125C17.4688 8 19.8438 6.15625 22.4062 4.78125C25.0312 3.34375 27.75 2.625 30.5625 2.625ZM60.9375 28.7812C62.5625 29.0938 63.9688 29.3438 65.1562 29.5312C66.4062 29.6562 67.4688 29.7812 68.3438 29.9062C69.3438 30.0312 70.2188 30.125 70.9688 30.1875C71.7188 30.25 72.5938 30.3125 73.5938 30.375C75.2812 30.4375 77.6562 30.4375 80.7188 30.375C78.9062 30.25 77.4688 30.7188 76.4062 31.7812C75.4062 32.7812 74.6562 33.9375 74.1562 35.25C73.5312 36.8125 73.1875 38.625 73.125 40.6875C73 43.4375 73.0625 45.9375 73.3125 48.1875C73.625 50.375 74.1562 52.25 74.9062 53.8125C75.7188 55.3125 76.7812 56.4375 78.0938 57.1875C79.4062 57.875 81.0938 58.0625 83.1562 57.75C85.2188 57.4375 86.7812 56.7188 87.8438 55.5938C88.9688 54.4062 89.7812 52.9688 90.2812 51.2812C90.7812 49.5312 91.0625 47.5625 91.125 45.375C91.25 43.1875 91.3438 40.9062 91.4062 38.5312C91.4062 36.1562 91.375 34.4688 91.3125 33.4688C91.3125 32.4062 91.2812 31.7188 91.2188 31.4062C91.1562 31.0938 91.0625 30.9688 90.9375 31.0312C90.8125 31.0312 90.6562 30.875 90.4688 30.5625C90.3438 30.3125 90.1562 30.0625 89.9062 29.8125C89.7188 29.5625 89.4688 29.2812 89.1562 28.9688C88.8438 28.5938 88.5 28.2188 88.125 27.8438C89.75 27.9062 91.1875 27.9688 92.4375 28.0312C93.75 28.0312 94.8438 28.0625 95.7188 28.125C96.7188 28.1875 97.5938 28.25 98.3438 28.3125C99.0312 28.375 99.9375 28.4688 101.062 28.5938C102 28.7188 103.219 28.8438 104.719 28.9688C106.219 29.0938 108 29.2812 110.062 29.5312C108.625 29.8438 107.469 30.3125 106.594 30.9375C105.719 31.5625 105.031 32.1875 104.531 32.8125C103.969 33.5 103.562 34.25 103.312 35.0625C103.125 36.125 103.125 37.75 103.312 39.9375C103.438 41.875 103.75 44.5312 104.25 47.9062C104.75 51.2812 105.531 55.7188 106.594 61.2188L99.1875 65.625L97.6875 53.1562C95.875 56.2188 93.9375 58.5938 91.875 60.2812C89.875 61.9062 88 63.0938 86.25 63.8438C84.1875 64.7188 82.1875 65.2188 80.25 65.3438C77.6875 65.3438 75.4688 65.1875 73.5938 64.875C71.7812 64.5 70.2188 64.0312 68.9062 63.4688C67.5938 62.9062 66.5312 62.2812 65.7188 61.5938C64.9688 60.8438 64.4062 60.0938 64.0312 59.3438C63.1562 57.7812 62.6875 55.7812 62.625 53.3438C62.5625 50.8438 62.6562 48.375 62.9062 45.9375C63.1562 43.4375 63.4375 41.1562 63.75 39.0938C64.0625 37.0312 64.1562 35.625 64.0312 34.875C63.9062 34.3125 63.7188 33.6875 63.4688 33C63.2188 32.4375 62.9062 31.8125 62.5312 31.125C62.1562 30.375 61.625 29.5938 60.9375 28.7812ZM111.469 30L128.719 30.1875C127.719 34 126.969 37.25 126.469 39.9375C126.031 42.625 125.75 44.875 125.625 46.6875C125.375 48.75 125.312 50.5 125.438 51.9375C125.625 53.25 125.938 54.6562 126.375 56.1562C126.75 57.4062 127.312 58.8438 128.062 60.4688C128.812 62.0938 129.812 63.7188 131.062 65.3438C130.312 65.0938 129.5 64.9062 128.625 64.7812C127.75 64.6562 126.938 64.5625 126.188 64.5C125.312 64.4375 124.438 64.4375 123.562 64.5C122.688 64.5625 121.719 64.6562 120.656 64.7812C119.781 64.9062 118.719 65.0625 117.469 65.25C116.219 65.4375 114.906 65.6875 113.531 66C114.469 63.1875 115.188 60.75 115.688 58.6875C116.25 56.625 116.656 54.9062 116.906 53.5312C117.156 51.9062 117.312 50.5938 117.375 49.5938C117.375 48.3438 117.375 46.9375 117.375 45.375C117.375 43.75 117.375 42.1875 117.375 40.6875C117.375 39.1875 117.344 37.875 117.281 36.75C117.219 35.5625 117.094 34.8125 116.906 34.5L115.969 33.5625C115.594 33.25 115.031 32.8125 114.281 32.25C113.594 31.625 112.656 30.875 111.469 30ZM118.125 15.5625C119.438 14.875 120.75 14.6875 122.062 15C123.438 15.3125 124.5 15.9062 125.25 16.7812C126 17.6562 126.25 18.6875 126 19.875C125.812 21.0625 124.812 22.2188 123 23.3438C121.188 24.4062 119.594 24.7812 118.219 24.4688C116.844 24.1562 115.875 23.5 115.312 22.5C114.75 21.5 114.656 20.3438 115.031 19.0312C115.406 17.6562 116.438 16.5 118.125 15.5625ZM175.781 18.375C175.219 19.75 174.719 21 174.281 22.125C173.906 23.25 173.562 24.25 173.25 25.125C172.938 26.125 172.656 27 172.406 27.75C172.156 28.625 171.875 29.625 171.562 30.75C171.25 31.75 170.844 33 170.344 34.5C169.906 35.9375 169.375 37.6562 168.75 39.6562C168.25 36.6562 167.344 34.2812 166.031 32.5312C164.719 30.7188 163.375 29.3125 162 28.3125C160.375 27.1875 158.625 26.375 156.75 25.875C153.375 25.3125 150.938 25.375 149.438 26.0625C147.938 26.75 146.938 27.625 146.438 28.6875C146.188 29.125 145.906 29.6875 145.594 30.375C145.344 31 145.125 31.6562 144.938 32.3438C144.812 33.0312 144.781 33.7188 144.844 34.4062C144.906 35.0938 145.188 35.6562 145.688 36.0938C146 36.4062 146.812 36.8438 148.125 37.4062C149.438 37.9062 151 38.5 152.812 39.1875C154.688 39.8125 156.656 40.5 158.719 41.25C160.844 42 162.844 42.75 164.719 43.5C166.594 44.25 168.219 45 169.594 45.75C170.969 46.5 171.875 47.1875 172.312 47.8125C172.688 48.4375 173.094 49.2812 173.531 50.3438C174.031 51.3438 174.375 52.4688 174.562 53.7188C174.812 54.9062 174.875 56.1562 174.75 57.4688C174.688 58.7188 174.344 59.9688 173.719 61.2188C173.094 62.4688 172.094 63.625 170.719 64.6875C169.406 65.75 167.625 66.625 165.375 67.3125C162.75 68.125 160.219 68.3438 157.781 67.9688C155.344 67.5938 153.094 67.0312 151.031 66.2812C149.031 65.5312 147.281 64.8125 145.781 64.125C144.281 63.375 143.219 63.0625 142.594 63.1875C141.906 63.3125 141.125 63.6562 140.25 64.2188C139.375 64.7812 138.531 65.375 137.719 66C136.969 66.5625 136.312 67.0938 135.75 67.5938C135.188 68.0312 134.906 68.1875 134.906 68.0625C134.906 67.9375 135 67.5625 135.188 66.9375C135.438 66.3125 135.688 65.5625 135.938 64.6875C136.25 63.75 136.531 62.75 136.781 61.6875C137.094 60.5625 137.312 59.5 137.438 58.5C137.562 57.6875 137.719 56.6875 137.906 55.5C138.031 54.4375 138.188 53.1562 138.375 51.6562C138.625 50.0938 138.906 48.2188 139.219 46.0312C139.531 47.6562 139.969 49.0625 140.531 50.25C141.156 51.4375 141.75 52.4688 142.312 53.3438C143 54.3438 143.656 55.1875 144.281 55.875C145.219 56.75 146.312 57.5625 147.562 58.3125C148.875 59.0625 150.188 59.7188 151.5 60.2812C152.812 60.7812 154.062 61.0938 155.25 61.2188C156.438 61.3438 157.438 61.2188 158.25 60.8438C159.062 60.4688 159.75 59.7812 160.312 58.7812C160.938 57.7812 161.375 56.6875 161.625 55.5C161.875 54.3125 161.969 53.1875 161.906 52.125C161.844 51 161.562 50.0938 161.062 49.4062C160.688 48.9688 159.812 48.4062 158.438 47.7188C157.125 47.0312 155.531 46.2812 153.656 45.4688C151.844 44.6562 149.906 43.8125 147.844 42.9375C145.844 42.0625 143.938 41.1875 142.125 40.3125C140.375 39.375 138.906 38.5 137.719 37.6875C136.594 36.8125 135.969 36.0312 135.844 35.3438C135.719 34.3438 135.625 33.25 135.562 32.0625C135.5 30.8125 135.562 29.5938 135.75 28.4062C136 27.1562 136.438 25.9688 137.062 24.8438C137.75 23.7188 138.75 22.7812 140.062 22.0312C140.938 21.5312 142.094 21.1562 143.531 20.9062C144.969 20.6562 146.562 20.5312 148.312 20.5312C150.062 20.4688 151.875 20.5312 153.75 20.7188C155.625 20.8438 157.406 21.0312 159.094 21.2812C160.844 21.4688 162.406 21.7188 163.781 22.0312C165.219 22.3438 166.312 22.625 167.062 22.875C167.938 23.1875 168.875 23.2188 169.875 22.9688C170.75 22.7812 171.688 22.375 172.688 21.75C173.688 21.125 174.719 20 175.781 18.375ZM181.312 74.5312C181.938 73.5938 182.438 72.7188 182.812 71.9062C183.188 71.0938 183.5 70.4062 183.75 69.8438C184 69.1562 184.188 68.5312 184.312 67.9688C184.375 67.5938 184.406 66.5 184.406 64.6875C184.406 62.875 184.344 60.5938 184.219 57.8438C184.156 55.0938 184.062 52 183.938 48.5625C183.875 45.125 183.75 41.625 183.562 38.0625C183.438 34.5 183.281 31.0312 183.094 27.6562C182.969 24.2812 182.844 21.25 182.719 18.5625C182.594 15.8125 182.469 13.5625 182.344 11.8125C182.219 10.0625 182.125 9.0625 182.062 8.8125C181.938 8.4375 181.719 8.0625 181.406 7.6875C180.781 6.9375 179.719 6.21875 178.219 5.53125C181.406 4.71875 183.844 4.0625 185.531 3.5625C186.531 3.3125 187.406 3.0625 188.156 2.8125C188.844 2.5625 189.531 2.3125 190.219 2.0625C190.781 1.8125 191.406 1.53125 192.094 1.21875C192.781 0.84375 193.406 0.4375 193.969 0C193.656 1.8125 193.406 3.5625 193.219 5.25C193.031 6.9375 192.875 8.5 192.75 9.9375C192.625 11.5625 192.562 13.125 192.562 14.625C192.25 17.6875 192.062 21.0312 192 24.6562C192 28.2188 192.031 31.8438 192.094 35.5312C192.156 39.2188 192.281 42.8125 192.469 46.3125C192.656 49.8125 192.844 53 193.031 55.875C193.281 58.6875 193.5 61.0938 193.688 63.0938C193.938 65.0312 194.125 66.2812 194.25 66.8438C194.5 67.7812 194.75 68.6875 195 69.5625C195.25 70.3125 195.531 71.0938 195.844 71.9062C196.156 72.7812 196.531 73.4688 196.969 73.9688H187.875C187.062 73.9688 186.281 74 185.531 74.0625C184.844 74.125 184.125 74.1875 183.375 74.25C182.625 74.3125 181.938 74.4062 181.312 74.5312ZM224.719 56.8125C226.469 56.8125 228.094 56.625 229.594 56.25C230.844 55.9375 232.031 55.4375 233.156 54.75C234.344 54 235.125 52.9062 235.5 51.4688C236.75 51.7188 237.812 51.9375 238.688 52.125C239.562 52.25 240.312 52.375 240.938 52.5C241.625 52.6875 242.219 52.8125 242.719 52.875C243.219 53 243.812 53.125 244.5 53.25C245.125 53.375 245.875 53.5312 246.75 53.7188C247.688 53.8438 248.781 54.0312 250.031 54.2812C249.094 54.1562 248.125 54.25 247.125 54.5625C246.188 54.875 245.281 55.2188 244.406 55.5938C243.406 56.0312 242.469 56.5625 241.594 57.1875C241.031 57.5625 240.375 58.125 239.625 58.875C238.938 59.625 237.938 60.3438 236.625 61.0312C235.312 61.7188 233.562 62.3125 231.375 62.8125C229.25 63.25 226.5 63.4062 223.125 63.2812C219.062 63.1562 215.656 62.4375 212.906 61.125C210.156 59.75 207.938 58.0938 206.25 56.1562C204.562 54.1562 203.344 52 202.594 49.6875C201.844 47.375 201.438 45.2188 201.375 43.2188C201.312 41.2188 201.906 39.125 203.156 36.9375C204.406 34.75 206.156 32.75 208.406 30.9375C210.719 29.125 213.5 27.6562 216.75 26.5312C220 25.3438 223.562 24.75 227.438 24.75C229.688 24.75 231.75 25.0312 233.625 25.5938C235.562 26.0938 237.312 26.7812 238.875 27.6562C240.5 28.5312 241.906 29.5312 243.094 30.6562C244.281 31.7188 245.281 32.8125 246.094 33.9375C246.906 35.125 247.594 36.375 248.156 37.6875C248.656 38.8125 249.062 40.0938 249.375 41.5312C249.688 42.9688 249.781 44.4375 249.656 45.9375C244.906 46.0625 241.062 46.1562 238.125 46.2188C235.25 46.2812 233 46.3125 231.375 46.3125H227.156H223.969C222.844 46.3125 221.375 46.3438 219.562 46.4062C217.75 46.4688 215.531 46.5625 212.906 46.6875C213.219 49.1875 214 51.125 215.25 52.5C216.562 53.8125 217.938 54.8125 219.375 55.5C221 56.25 222.781 56.6875 224.719 56.8125ZM216.281 39.9375C218.281 40.0625 219.938 40.1562 221.25 40.2188C222.625 40.2812 223.75 40.3438 224.625 40.4062C225.562 40.4688 226.312 40.5 226.875 40.5H229.219C230.781 40.5 233.688 40.4062 237.938 40.2188C237.75 37.4688 237.156 35.375 236.156 33.9375C235.219 32.5 234.219 31.4375 233.156 30.75C231.906 30 230.531 29.5625 229.031 29.4375C224.969 29.5 221.938 30.3438 219.938 31.9688C218 33.5938 216.781 36.25 216.281 39.9375Z" fill="url(#paint0_linear_1_2)"/>
<defs>
<linearGradient id="paint0_linear_1_2" x1="127.156" y1="-20.0938" x2="127.156" y2="95.9062" gradientUnits="userSpaceOnUse">
<stop stop-color="white"/>
<stop offset="1" stop-color="#1D2576"/>
</linearGradient>
</defs>
</svg>
